<svg width="31" height="25" viewBox="0 0 31 25" fill="none" xmlns="http://www.w3.org/2000/svg">
<path id="Vector" d="M2.00042 20.3116C1.99072 20.8214 2.15055 21.3223 2.45977 21.7512C2.71676 22.1114 3.06669 22.4115 3.48034 22.6266C3.89398 22.8417 4.35935 22.9654 4.83758 22.9875C5.80733 23.0317 4.03147 22.9875 5.00271 22.9875H9.50615C9.50582 21.5269 8.96834 20.1067 7.97602 18.9444C6.9837 17.782 5.59126 16.9416 4.01195 16.5519C4.84959 15.25 5.87338 13.6766 7.07429 11.8275C9.56752 12.7274 11.7025 14.2704 13.2055 16.2587C14.7086 18.247 15.5113 20.59 15.5107 22.9875H21.5153C22.5106 22.9875 25.0235 22.9942 26.0188 22.9875C26.5086 22.9845 26.9902 22.8746 27.4214 22.6676C27.8527 22.4605 28.2206 22.1626 28.493 21.7997C28.7654 21.4369 28.934 21.0201 28.9842 20.5858C29.0344 20.1515 28.9646 19.7128 28.7809 19.3081L18.1227 2.91799C17.8631 2.49974 17.4825 2.15111 17.0205 1.90834C16.5585 1.66558 16.032 1.53754 15.4957 1.53754C14.9594 1.53754 14.4329 1.66558 13.9709 1.90834C13.5089 2.15111 13.1284 2.49974 12.8687 2.91799L10.1066 7.16738C16.8347 9.91021 21.5153 15.9592 21.5153 22.9875" stroke="#FCFCFC" stroke-width="2.75" stroke-linecap="round" stroke-linejoin="round"/>
</svg>
